<svg width="32" height="32" viewBox="0 0 32 32" fill="none" xmlns="http://www.w3.org/2000/svg">
<path d="M13.5188 9.9H8.5625C6.0625 9.24375 0.40625 9.4125 0.40625 14.575C0.40625 16.4562 1.34375 17.775 2.59375 18.3875C1.025 19.825 0.28125 20.5062 0.28125 21.4625C0.28125 22.15 0.5625 22.7813 1.4 23.1375C0.50625 23.975 0 24.5875 0 25.7313C0 27.7375 1.75625 28.9062 6.35 28.9062C10.775 28.9062 13.3375 27.2562 13.3375 24.3312C13.3375 20.6625 10.5125 20.8 3.8625 20.3937L4.7 19.0438C6.40625 19.5188 12.1187 19.6688 12.1187 14.8C12.1187 13.6313 11.6375 12.8187 11.1812 12.2312L13.5188 12.0562V9.9ZM9.55625 25.0187C9.55625 27.025 3 27.025 3 25.1688C3 24.6625 3.33125 24.2313 3.6625 23.825C8.51875 24.1563 9.55625 24.0375 9.55625 25.0187ZM6.38125 16.6063C3.08125 16.6063 3.225 12.1562 6.45625 12.1562C9.55 12.1562 9.63125 16.6063 6.38125 16.6063ZM14.7125 22.8875V20.8813C16.3875 20.65 16.4125 20.7563 16.4125 20.1938V12.725C16.4125 12.1938 16.2812 12.2625 14.7125 11.7063L14.9937 9.65H20.25V20.1938C20.25 20.6 20.275 20.65 20.6562 20.7L21.95 20.875V22.8813L14.7125 22.8875ZM17.9937 7.61875C16.5437 7.61875 15.7063 6.78125 15.7063 5.33125C15.7063 3.88125 16.5437 3.09375 17.9937 3.09375C19.4687 3.09375 20.3062 3.88125 20.3062 5.33125C20.3062 6.78125 19.4687 7.61875 17.9937 7.61875ZM32 21.9062C30.9062 22.4375 29.3063 22.925 27.8563 22.925C24.8313 22.925 23.6875 21.7062 23.6875 18.8312V12.175C23.6875 11.8375 23.7562 11.9187 21.7062 11.9187V9.65625C23.9437 9.4 24.8312 8.28125 25.1125 5.5125H27.525C27.525 9.625 27.4438 9.375 27.7313 9.375H31.3125V11.9187H27.525V17.9937C27.525 18.425 27.2188 21.2063 31.3125 19.6688L32 21.9062Z" fill="#EE8A51"/>
</svg>
