<svg width="24" height="32" viewBox="0 0 24 32" fill="none" xmlns="http://www.w3.org/2000/svg">
<g clip-path="url(#clip0_627_14)">
<path d="M17.3561 19.5562C17.9686 19.1375 18.8186 18.775 18.8186 18.775C18.8186 18.775 16.3998 19.2125 13.9936 19.4125C11.0498 19.6563 7.88734 19.7062 6.29984 19.4937C2.54359 18.9937 8.36234 17.6125 8.36234 17.6125C8.36234 17.6125 6.10609 17.4625 3.32484 18.8C0.0435922 20.3875 11.4498 21.1125 17.3561 19.5562ZM12.0186 17.55C10.8311 14.8812 6.82484 12.5375 12.0186 8.4375C18.4998 3.325 15.1748 0 15.1748 0C16.5186 5.28125 10.4498 6.88125 8.25609 10.1625C6.76234 12.4063 8.98734 14.8125 12.0186 17.55ZM19.1811 6.5375C19.1873 6.5375 8.23109 9.275 13.4623 15.3C15.0061 17.075 13.0561 18.675 13.0561 18.675C13.0561 18.675 16.9748 16.65 15.1748 14.1187C13.4936 11.7562 12.2061 10.5812 19.1811 6.5375ZM18.7998 23.4438C18.7657 23.5033 18.7236 23.558 18.6748 23.6063C26.6936 21.5 23.7436 16.175 19.9123 17.525C19.7054 17.6009 19.5265 17.7383 19.3998 17.9188C19.6236 17.8378 19.8535 17.7751 20.0873 17.7313C22.0248 17.325 24.8061 20.325 18.7998 23.4438ZM21.7498 27.3375C21.7498 27.3375 22.6561 28.0813 20.7561 28.6625C17.1373 29.7563 5.70609 30.0875 2.53109 28.7062C1.38734 28.2125 3.53109 27.5187 4.20609 27.375C4.90609 27.225 5.31234 27.25 5.31234 27.25C4.04359 26.3562 -2.89391 29.0063 1.78734 29.7625C14.5498 31.8375 25.0623 28.8312 21.7498 27.3375ZM7.77484 24.75C2.85609 26.125 10.7686 28.9625 17.0311 26.2812C16.4203 26.044 15.8307 25.7554 15.2686 25.4188C12.4748 25.95 11.1811 25.9875 8.64359 25.7C6.54984 25.4625 7.77484 24.75 7.77484 24.75ZM19.0123 30.825C14.0936 31.75 8.02484 31.6437 4.43109 31.05C4.43109 31.0437 5.16859 31.6562 8.95609 31.9C14.7186 32.2687 23.5686 31.6937 23.7748 28.9688C23.7748 28.9688 23.3748 30 19.0123 30.825ZM16.2873 22.0625C12.5873 22.775 10.4436 22.7563 7.73734 22.475C5.64359 22.2563 7.01234 21.2437 7.01234 21.2437C1.58734 23.0437 10.0248 25.0812 17.6061 22.8625C17.1161 22.6894 16.6672 22.4171 16.2873 22.0625Z" fill="#EE8A51"/>
</g>
<defs>
<clipPath id="clip0_627_14">
<rect width="24" height="32" fill="white"/>
</clipPath>
</defs>
</svg>
