<svg width="93" height="82" viewBox="0 0 93 82" fill="none" xmlns="http://www.w3.org/2000/svg">
<g clip-path="url(#clip0_19_7)">
<path d="M46.3855 49.0046C50.9635 49.0046 54.6746 45.3268 54.6746 40.79C54.6746 36.2532 50.9635 32.5754 46.3855 32.5754C41.8075 32.5754 38.0964 36.2532 38.0964 40.79C38.0964 45.3268 41.8075 49.0046 46.3855 49.0046Z" fill="#61DAFB"/>
<path d="M46.6096 55.7481C68.6384 55.7481 86.4963 48.9909 86.4963 40.6555C86.4963 32.3201 68.6384 25.5629 46.6096 25.5629C24.5808 25.5629 6.7229 32.3201 6.7229 40.6555C6.7229 48.9909 24.5808 55.7481 46.6096 55.7481Z" stroke="#61DAFB" stroke-width="4"/>
<path d="M33.4205 48.2018C44.4349 67.1078 59.2688 79.0556 66.553 74.8879C73.8371 70.7202 70.8131 52.0152 59.7987 33.1092C48.7843 14.2031 33.9504 2.2553 26.6662 6.42301C19.3821 10.5907 22.4061 29.2957 33.4205 48.2018Z" stroke="#61DAFB" stroke-width="4"/>
<path d="M33.4205 33.1092C22.4061 52.0153 19.3821 70.7202 26.6663 74.888C33.9504 79.0557 48.7843 67.1079 59.7987 48.2018C70.8132 29.2957 73.8371 10.5907 66.553 6.42303C59.2688 2.25532 44.4349 14.2031 33.4205 33.1092Z" stroke="#61DAFB" stroke-width="4"/>
</g>
<defs>
<clipPath id="clip0_19_7">
<rect width="93" height="82" fill="white"/>
</clipPath>
</defs>
</svg>
